# File created by Blade
# Date/Time:  Wed Jan 21 18:34:41 2015
# Frame Rate: 120.000 fps
#------------------------------------------------------
:FULLY-SPECIFIED
:DEGREES
2267
root 2.462158 32.728701 -6.238999 45.338251 4.256117 1.418048
RightUpLeg -38.791420 -18.156697 9.587173
RightLeg -2.639009 -0.000000 0.000000
RightFoot -9.545159 -0.697538 23.034647
RightToeBase 21.340255 -0.000000 -0.000000
LeftUpLeg -40.355205 10.512453 -3.254416
LeftLeg 0.538680 -0.000000 -0.000000
LeftFoot -3.602216 -8.106669 -15.369250
LeftToeBase 3.208345 -0.000000 -0.000000
Spine -44.808660 1.716562 -3.141096
RightShoulder -30.310170 1.785708 -55.300885
RightArm -21.357433 -3.585413 39.053654
RightForeArm 2.615721 -0.000000 -4.707558
RightHand 11.430464 -0.000000 -4.950326
RightHandThumb1 -24.326973 -0.000000 -32.862282
LeftShoulder -21.854754 12.054367 44.974865
LeftArm -1.841929 -26.055252 -44.572889
LeftForeArm 25.956779 0.000000 -0.179440
LeftHand -30.212056 0.000000 6.102693
LeftHandThumb1 -26.253704 0.000000 33.147579
Head -6.337550 -4.993810 5.983391
2268
root 2.460758 32.729342 -6.247018 45.324628 4.158403 1.405660
RightUpLeg -38.810248 -18.145640 9.589756
RightLeg -2.643256 -0.000000 0.000000
RightFoot -9.502502 -0.624420 23.013496
RightToeBase 21.339377 -0.000000 -0.000000
LeftUpLeg -40.343704 10.579339 -3.300925
LeftLeg 0.529819 -0.000000 -0.000000
LeftFoot -3.600231 -8.098919 -15.394456
LeftToeBase 3.234981 -0.000000 -0.000000
Spine -44.847222 1.747440 -3.158995
RightShoulder -30.265455 1.896021 -55.285515
RightArm -21.109450 -3.558651 39.117211
RightForeArm 2.723976 -0.000000 -4.669474
RightHand 11.580264 0.000000 -5.136173
RightHandThumb1 -24.326973 -0.000000 -32.862282
LeftShoulder -21.894938 11.947839 44.885019
LeftArm -1.435092 -25.969542 -44.703948
LeftForeArm 26.002966 -0.000000 -0.263945
LeftHand -30.028982 -0.000000 5.898010
LeftHandThumb1 -26.253704 0.000000 33.147579
Head -6.144292 -5.106497 5.911651
2269
root 2.459650 32.731506 -6.254239 45.308786 4.066364 1.384467
RightUpLeg -38.822570 -18.145094 9.618751
RightLeg -2.665267 -0.000000 0.000000
RightFoot -9.427312 -0.533990 22.989764
RightToeBase 21.356878 -0.000000 -0.000000
LeftUpLeg -40.331988 10.653686 -3.343258
LeftLeg 0.522551 -0.000000 -0.000000
LeftFoot -3.588860 -8.091783 -15.384852
LeftToeBase 3.185672 -0.000000 -0.000000
Spine -44.902445 1.772049 -3.169931
RightShoulder -30.198014 2.114602 -55.276943
RightArm -20.882056 -3.553190 39.136063
RightForeArm 2.687168 0.000000 -4.602181
RightHand 11.571882 -0.000000 -4.972251
RightHandThumb1 -24.326973 -0.000000 -32.862282
LeftShoulder -21.852114 11.832519 44.837394
LeftArm -1.119504 -25.838940 -44.834716
LeftForeArm 25.919799 -0.000000 -0.278902
LeftHand -29.725455 -0.000000 5.595575
LeftHandThumb1 -26.253704 0.000000 33.147579
Head -5.923833 -5.088884 5.902108
2270
root 2.457629 32.731708 -6.263460 45.294462 3.956966 1.380856
RightUpLeg -38.824037 -18.119573 9.586216
RightLeg -2.686959 -0.000000 0.000000
RightFoot -9.386258 -0.481397 22.987437
RightToeBase 21.441057 -0.000000 -0.000000
LeftUpLeg -40.317850 10.712958 -3.395115
LeftLeg 0.513959 -0.000000 -0.000000
LeftFoot -3.597468 -8.066892 -15.387891
LeftToeBase 3.236455 -0.000000 -0.000000
Spine -44.947995 1.788606 -3.211046
RightShoulder -30.155225 2.327088 -55.233293
RightArm -20.556659 -3.674260 39.200729
RightForeArm 2.692761 -0.000000 -4.521944
RightHand 11.574620 -0.000000 -4.923842
RightHandThumb1 -24.326973 -0.000000 -32.862282
LeftShoulder -21.790929 11.714033 44.770965
LeftArm -0.821547 -25.789854 -44.897668
LeftForeArm 26.087088 -0.000000 -0.258125
LeftHand -29.534578 -0.000000 5.244811
LeftHandThumb1 -26.253704 0.000000 33.147579
Head -5.734612 -5.059481 5.903347
2271
root 2.455603 32.732425 -6.274550 45.284764 3.844479 1.365431
RightUpLeg -38.848250 -18.097206 9.584426
RightLeg -2.698589 -0.000000 0.000000
RightFoot -9.320450 -0.409797 22.988337
RightToeBase 21.480856 -0.000000 -0.000000
LeftUpLeg -40.314301 10.755253 -3.418489
LeftLeg 0.518937 -0.000000 -0.000000
LeftFoot -3.621161 -8.023745 -15.424274
LeftToeBase 3.281879 -0.000000 -0.000000
Spine -44.999884 1.838221 -3.264291
RightShoulder -30.125955 2.496824 -55.165246
RightArm -20.154011 -3.875923 39.283770
RightForeArm 2.796838 0.000000 -4.535456
RightHand 11.642439 0.000000 -4.564628
RightHandThumb1 -24.326973 -0.000000 -32.862282
LeftShoulder -21.730542 11.650168 44.660190
LeftArm -0.368438 -25.730868 -45.012464
LeftForeArm 26.092443 -0.000000 -0.235906
LeftHand -29.470257 0.000000 5.054421
LeftHandThumb1 -26.253704 0.000000 33.147579
Head -5.542365 -5.075081 5.875450
2272
root 2.453365 32.732771 -6.286928 45.270162 3.726735 1.350812
RightUpLeg -38.876843 -18.082751 9.586343
RightLeg -2.701590 -0.000000 0.000000
RightFoot -9.261158 -0.321510 22.991167
RightToeBase 21.468562 -0.000000 -0.000000
LeftUpLeg -40.310696 10.803481 -3.447711
LeftLeg 0.528084 -0.000000 -0.000000
LeftFoot -3.638853 -7.972524 -15.423149
LeftToeBase 3.261071 -0.000000 -0.000000
Spine -45.043827 1.883153 -3.323659
RightShoulder -30.063996 2.674681 -55.049146
RightArm -19.755553 -3.896194 39.267560
RightForeArm 2.709810 -0.000000 -4.426556
RightHand 11.357246 -0.000000 -4.278635
RightHandThumb1 -24.326973 -0.000000 -32.862282
LeftShoulder -21.650132 11.556593 44.595770
LeftArm 0.026000 -25.627943 -45.146276
LeftForeArm 26.015592 -0.000000 -0.123696
LeftHand -29.452279 -0.000000 5.053309
LeftHandThumb1 -26.253704 0.000000 33.147579
Head -5.360190 -5.037977 5.868742
2273
root 2.454411 32.732753 -6.298880 45.261238 3.638660 1.343367
RightUpLeg -38.907050 -18.097770 9.604575
RightLeg -2.714952 -0.000000 0.000000
RightFoot -9.197900 -0.237635 22.923681
RightToeBase 21.487604 -0.000000 -0.000000
LeftUpLeg -40.307154 10.777206 -3.429123
LeftLeg 0.540626 -0.000000 -0.000000
LeftFoot -3.678234 -7.873052 -15.431509
LeftToeBase 3.281591 -0.000000 -0.000000
Spine -45.106595 1.900300 -3.333618
RightShoulder -29.965822 2.878813 -54.963320
RightArm -19.336349 -4.050078 39.320795
RightForeArm 2.793696 -0.000000 -4.385832
RightHand 11.374030 -0.000000 -4.151469
RightHandThumb1 -24.326973 -0.000000 -32.862282
LeftShoulder -21.500370 11.469192 44.508852
LeftArm 0.379757 -25.503213 -45.238751
LeftForeArm 25.900385 -0.000000 -0.043729
LeftHand -29.532084 -0.000000 5.120273
LeftHandThumb1 -26.253704 0.000000 33.147579
Head -5.152875 -4.910254 5.827964
2274
root 2.454849 32.732586 -6.312041 45.235539 3.546543 1.332984
RightUpLeg -38.920811 -18.082415 9.591529
RightLeg -2.709011 -0.000000 0.000000
RightFoot -9.165673 -0.176141 22.939073
RightToeBase 21.508770 -0.000000 -0.000000
LeftUpLeg -40.290827 10.762582 -3.410703
LeftLeg 0.555401 -0.000000 -0.000000
LeftFoot -3.714268 -7.785320 -15.442983
LeftToeBase 3.243974 -0.000000 -0.000000
Spine -45.136448 1.919844 -3.345100
RightShoulder -29.889595 3.037996 -54.852872
RightArm -18.850995 -4.249666 39.415026
RightForeArm 3.005940 -0.000000 -4.320609
RightHand 11.459956 -0.000000 -3.824354
RightHandThumb1 -24.326973 -0.000000 -32.862282
LeftShoulder -21.380245 11.348927 44.426743
LeftArm 0.790941 -25.249038 -45.338713
LeftForeArm 25.619305 -0.000000 -0.054110
LeftHand -29.372574 -0.000000 5.240283
LeftHandThumb1 -26.253704 0.000000 33.147579
Head -4.984827 -4.913400 5.758593
2275
root 2.454598 32.732231 -6.326661 45.204594 3.459377 1.315125
RightUpLeg -38.942653 -18.081916 9.601050
RightLeg -2.693836 -0.000000 0.000000
RightFoot -9.108072 -0.074894 22.927275
RightToeBase 21.499720 -0.000000 -0.000000
LeftUpLeg -40.280366 10.735306 -3.374661
LeftLeg 0.591616 -0.000000 -0.000000
LeftFoot -3.782703 -7.666871 -15.455355
LeftToeBase 3.274360 -0.000000 -0.000000
Spine -45.152631 1.936976 -3.342329
RightShoulder -29.780676 3.260984 -54.770130
RightArm -18.461335 -4.318812 39.469563
RightForeArm 2.972229 -0.000000 -4.134203
RightHand 11.413428 0.000000 -3.686486
RightHandThumb1 -24.326973 -0.000000 -32.862282
LeftShoulder -21.271159 11.197602 44.351087
LeftArm 1.168731 -24.997511 -45.409520
LeftForeArm 25.469388 -0.000000 -0.020891
LeftHand -29.131575 -0.000000 5.326942
LeftHandThumb1 -26.253704 0.000000 33.147579
Head -4.821066 -4.782363 5.732563
